<svg width="40" height="40" viewBox="0 0 40 40" fill="none" xmlns="http://www.w3.org/2000/svg">
<g clip-path="url(#clip0_969_5864)">
<path d="M13.6804 26.3196C13.5281 26.1672 13.4425 25.9606 13.4425 25.7452C13.4425 25.5297 13.5281 25.3231 13.6804 25.1707L18.8511 20L13.6804 14.8292C13.5324 14.676 13.4505 14.4707 13.4523 14.2577C13.4542 14.0447 13.5396 13.8409 13.6903 13.6902C13.8409 13.5396 14.0447 13.4542 14.2578 13.4523C14.4708 13.4505 14.676 13.5323 14.8293 13.6803L20 18.8511L25.1708 13.6803C25.324 13.5323 25.5292 13.4505 25.7423 13.4523C25.9553 13.4542 26.1591 13.5396 26.3097 13.6902C26.4604 13.8409 26.5458 14.0447 26.5477 14.2577C26.5495 14.4707 26.4676 14.676 26.3196 14.8292L21.1489 20L26.3196 25.1707C26.4676 25.324 26.5495 25.5292 26.5477 25.7422C26.5458 25.9553 26.4604 26.1591 26.3097 26.3097C26.1591 26.4603 25.9553 26.5458 25.7423 26.5476C25.5292 26.5495 25.324 26.4676 25.1708 26.3196L20 21.1488L14.8293 26.3196C14.6769 26.4719 14.4703 26.5575 14.2548 26.5575C14.0394 26.5575 13.8328 26.4719 13.6804 26.3196Z" fill="#F50606"/>
<path fill-rule="evenodd" clip-rule="evenodd" d="M20 36.25C28.9749 36.25 36.25 28.9749 36.25 20C36.25 11.0251 28.9749 3.75 20 3.75C11.0251 3.75 3.75 11.0251 3.75 20C3.75 28.9749 11.0251 36.25 20 36.25ZM20 34.625C28.0771 34.625 34.625 28.0771 34.625 20C34.625 11.9229 28.0771 5.375 20 5.375C11.9229 5.375 5.375 11.9229 5.375 20C5.375 28.0771 11.9229 34.625 20 34.625Z" fill="#F50606"/>
</g>
<defs>
<clipPath id="clip0_969_5864">
<rect width="39" height="39" fill="white" transform="translate(0.5 0.5)"/>
</clipPath>
</defs>
</svg>
