<svg width="34" height="35" viewBox="0 0 34 35" fill="none" xmlns="http://www.w3.org/2000/svg">
<path fill-rule="evenodd" clip-rule="evenodd" d="M17 34.1666C26.205 34.1666 33.6667 26.705 33.6667 17.5C33.6667 8.29498 26.205 0.833313 17 0.833313C7.79504 0.833313 0.333374 8.29498 0.333374 17.5C0.333374 26.705 7.79504 34.1666 17 34.1666ZM25.9517 12.225C26.0297 12.1447 26.0907 12.0494 26.131 11.945C26.1714 11.8406 26.1903 11.7292 26.1866 11.6173C26.183 11.5054 26.1568 11.3954 26.1097 11.2938C26.0626 11.1923 25.9955 11.1013 25.9125 11.0262C25.8294 10.9512 25.7321 10.8936 25.6263 10.857C25.5205 10.8204 25.4084 10.8055 25.2967 10.8132C25.1851 10.8208 25.0761 10.8509 24.9763 10.9016C24.8765 10.9523 24.7879 11.0226 24.7159 11.1083L14.7334 22.1391L9.24171 16.8966C9.08191 16.7439 8.868 16.6609 8.64702 16.6659C8.42604 16.6709 8.21609 16.7635 8.06337 16.9233C7.91065 17.0831 7.82767 17.297 7.83267 17.518C7.83767 17.739 7.93025 17.9489 8.09004 18.1016L14.2017 23.935L14.8209 24.5266L15.395 23.8916L25.9517 12.225Z" fill="#03963E"/>
</svg>
