<svg width="14" height="11" viewBox="0 0 14 11" fill="none" xmlns="http://www.w3.org/2000/svg">
<path d="M13.0306 2.03051L5.0306 10.0305C4.96092 10.1004 4.87813 10.1559 4.78696 10.1938C4.6958 10.2316 4.59806 10.2511 4.49935 10.2511C4.40064 10.2511 4.3029 10.2316 4.21173 10.1938C4.12057 10.1559 4.03778 10.1004 3.9681 10.0305L0.468098 6.53051C0.398333 6.46074 0.342993 6.37792 0.305236 6.28677C0.26748 6.19562 0.248047 6.09792 0.248047 5.99926C0.248047 5.9006 0.26748 5.8029 0.305236 5.71175C0.342993 5.62059 0.398333 5.53777 0.468098 5.46801C0.537863 5.39824 0.620685 5.3429 0.711837 5.30515C0.802989 5.26739 0.900686 5.24796 0.999348 5.24796C1.09801 5.24796 1.19571 5.26739 1.28686 5.30515C1.37801 5.3429 1.46083 5.39824 1.5306 5.46801L4.49997 8.43738L11.9693 0.969257C12.1102 0.828361 12.3013 0.749207 12.5006 0.749207C12.6999 0.749207 12.891 0.828361 13.0318 0.969257C13.1727 1.11015 13.2519 1.30125 13.2519 1.50051C13.2519 1.69976 13.1727 1.89086 13.0318 2.03176L13.0306 2.03051Z" fill="white"/>
</svg>
