<svg width="21" height="27" viewBox="0 0 21 27" fill="none" xmlns="http://www.w3.org/2000/svg">
<path d="M9.8402 0.996813C9.68093 1.01827 9.24865 1.09336 8.87324 1.15773C8.49783 1.2221 7.71289 1.49031 7.12134 1.75851C5.65385 2.42365 4.40249 3.57156 3.71994 4.90185C2.88949 6.50035 2.86674 6.61835 2.80986 11.1027C2.78711 13.3127 2.79848 15.276 2.84399 15.4798C2.96912 16.1557 3.23077 16.2737 4.65276 16.2737C5.33532 16.2737 5.86999 16.2951 5.83586 16.3273C5.80173 16.3595 5.07367 16.5741 4.2091 16.8101C3.3559 17.0354 2.42308 17.3358 2.15005 17.4538C1.4675 17.7649 0.580173 18.7197 0.273023 19.4707C0.0341278 20.0393 0.0113759 20.2431 0.0113759 22.6891L0.003023 24.6112C0.00102875 25.0701 0.0929115 25.5245 0.273023 25.9466C1 26 1 26.0443 1.5 26.0157C1.77302 25.8119 1.70639 25.3819 1.76327 22.85C1.82015 20.3075 1.82015 20.2967 2.1273 19.7925C2.29794 19.5243 2.60509 19.2025 2.80986 19.0845C3.34453 18.7733 7.37161 17.7005 7.41712 17.8507C7.5195 18.1189 8.14518 18.8377 8.49783 19.1059C9.0325 19.4814 10.1815 19.7496 10.9095 19.653C12.0471 19.5136 12.9458 18.9772 13.3781 18.1726C13.5033 17.958 13.6284 17.7756 13.6625 17.7756C13.8787 17.7756 17.7124 18.8913 18.0309 19.0523C18.247 19.1596 18.5883 19.4492 18.7703 19.696L19.1116 20.1573L19.1798 25.0785V25.4755L19.4529 25.7222C19.851 26.0762 20.3857 26.0548 20.727 25.6793L21 25.3789V24.9748L20.9317 19.9749L20.6132 19.3312C20.2378 18.5695 19.5325 17.8507 18.8272 17.5074C18.5428 17.3679 17.5986 17.0568 16.7226 16.8208C15.8581 16.5741 15.1186 16.3595 15.0959 16.3273C15.0618 16.2951 15.6078 16.2737 16.3131 16.2737C17.5076 16.2737 17.5986 16.2629 17.8602 16.0055L18.1446 15.748V11.5211C18.1446 7.65898 18.1219 7.22986 17.9171 6.46816C17.2118 3.87196 15.13 1.87652 12.4453 1.21137C11.7627 1.05045 10.2952 0.921717 9.8402 0.996813ZM11.9447 2.90642C14.0152 3.42137 15.6078 4.94477 16.1538 6.90802C16.2904 7.39078 16.3245 8.27049 16.3245 11.0383V14.5572H15.1869H14.0493L14.4361 14.0744C15.13 13.2269 15.3348 12.5403 15.3803 10.9096C15.4258 9.32185 15.3462 8.98927 14.8456 8.84981C11.2394 7.87355 10.4431 7.45515 9.68093 6.09268C9.36241 5.52409 9.18039 5.30952 8.96425 5.26661C8.46371 5.1486 8.09968 5.34171 7.78115 5.92103C7.62189 6.21069 7.20098 6.73636 6.8597 7.10112C5.73348 8.25976 5.68797 8.40995 5.68797 10.6414C5.68797 12.7656 5.74485 12.9909 6.54117 14.0744L6.89382 14.5572H5.74485H4.58451L4.63001 10.9311C4.67551 7.84136 4.70964 7.22986 4.88028 6.72564C5.52871 4.85894 6.99621 3.46428 8.85049 2.96006C9.70368 2.73477 11.1598 2.70259 11.9447 2.90642ZM10.7844 9.3433C11.2281 9.55787 12.0471 9.85825 12.5932 10.0192L13.5943 10.3196V11.0169C13.5943 11.9073 13.4464 12.3794 12.9913 13.0123C12.4567 13.774 11.74 14.1495 10.7161 14.2139C9.68093 14.2782 8.91874 13.9993 8.27032 13.3342C7.55363 12.6047 7.42849 12.1433 7.474 10.4698L7.50813 9.02146L8.06555 8.42068L8.62297 7.80918L9.29415 8.3885C9.65818 8.71034 10.3294 9.13947 10.7844 9.3433ZM11.8879 16.6063C11.8879 17.2285 11.8537 17.3358 11.5693 17.5932C11.1826 17.9473 10.5114 18.0546 9.89707 17.8614C9.32828 17.6898 9.04388 17.207 9.04388 16.4346V15.8982H10.4659H11.8879V16.6063Z" fill="white"/>
</svg>
